<?xml version="1.0" encoding="UTF-8" standalone="no"?>
<svg width="24px" height="24px" viewBox="0 0 24 24" version="1.1" xmlns="http://www.w3.org/2000/svg" xmlns:xlink="http://www.w3.org/1999/xlink">
    <!-- Generator: Sketch 45.1 (43504) - http://www.bohemiancoding.com/sketch -->
    <title>Mail</title>
    <desc>Created with Sketch.</desc>
    <defs></defs>
    <g id="About:-Who-We-Are" stroke="none" stroke-width="1" fill="none" fill-rule="evenodd">
        <g id="About:-Who-we-are-(1)" transform="translate(-753.000000, -1636.000000)" stroke="#414042">
            <g id="About-Us" transform="translate(173.000000, 547.000000)">
                <g id="Social" transform="translate(490.000000, 1090.000000)">
                    <g id="Mail" transform="translate(91.118597, 0.000000)">
                        <path d="M16.7829553,7.37512648 C16.7829553,7.16794985 16.6147522,7 16.4018383,7 L6.45569015,7 C6.24520505,7 6.07457316,7.16709137 6.07457316,7.37512648 L6.07457316,14.6248735 C6.07457316,14.8320502 6.24277627,15 6.45569015,15 L16.4018383,15 C16.6123234,15 16.7829553,14.8329086 16.7829553,14.6248735 L16.7829553,7.37512648 Z" id="Path-3" stroke-width="0.75"></path>
                        <path d="M6.07457316,7 L11.1632491,12.0688525 C11.3098891,12.2149212 11.5506539,12.2119185 11.6942794,12.0688525 L16.7829553,7" id="Path-4" stroke-width="0.75"></path>
                        <ellipse id="Oval" cx="11.1367175" cy="11" rx="11.1367175" ry="11"></ellipse>
                    </g>
                </g>
            </g>
        </g>
    </g>
</svg>