<?xml version="1.0" encoding="UTF-8" standalone="no"?>
<svg width="24px" height="24px" viewBox="0 0 24 24" version="1.1" xmlns="http://www.w3.org/2000/svg" xmlns:xlink="http://www.w3.org/1999/xlink">
    <!-- Generator: Sketch 45.1 (43504) - http://www.bohemiancoding.com/sketch -->
    <title>Facebook</title>
    <desc>Created with Sketch.</desc>
    <defs></defs>
    <g id="About:-Who-We-Are" stroke="none" stroke-width="1" fill="none" fill-rule="evenodd">
        <g id="About:-Who-we-are-(1)" transform="translate(-723.000000, -1636.000000)">
            <g id="About-Us" transform="translate(173.000000, 547.000000)">
                <g id="Social" transform="translate(490.000000, 1090.000000)">
                    <g id="Facebook" transform="translate(60.745732, 0.000000)">
                        <path d="M11.7941388,7.23333333 C11.6363569,7.3977786 11.5574671,7.6533316 11.5574671,8 L11.5574671,8.97333333 L13.2404657,8.97333333 L13.1089815,9.92 L11.5574671,9.92 L11.5574671,16 L10.3478119,16 L10.3478119,9.92 L9.11185974,9.92 L9.11185974,8.97333333 L10.3478119,8.97333333 L10.3478119,8.01333333 C10.3478119,7.40888587 10.5384621,6.92222407 10.9197684,6.55333333 C11.3010747,6.1844426 11.8335807,6 12.5173023,6 C12.8328661,6 13.1155544,6.0288886 13.3653758,6.08666667 C13.6151972,6.14444473 13.8847372,6.23555493 14.174004,6.36 L13.7926997,7.25333333 C13.3982449,7.07555467 12.9950305,6.98666667 12.5830444,6.98666667 C12.2148866,6.98666667 11.9519207,7.06888807 11.7941388,7.23333333 Z" id="f" fill="#414042"></path>
                        <ellipse id="Oval-Copy-2" stroke="#414042" cx="11.1367175" cy="11" rx="11.1367175" ry="11"></ellipse>
                    </g>
                </g>
            </g>
        </g>
    </g>
</svg>