<?xml version="1.0" encoding="UTF-8" standalone="no"?>
<svg width="24px" height="24px" viewBox="0 0 24 24" version="1.1" xmlns="http://www.w3.org/2000/svg" xmlns:xlink="http://www.w3.org/1999/xlink">
    <!-- Generator: Sketch 45.1 (43504) - http://www.bohemiancoding.com/sketch -->
    <title>Linkedin</title>
    <desc>Created with Sketch.</desc>
    <defs></defs>
    <g id="About:-Who-We-Are" stroke="none" stroke-width="1" fill="none" fill-rule="evenodd">
        <g id="About:-Who-we-are-(1)" transform="translate(-662.000000, -1636.000000)">
            <g id="About-Us" transform="translate(173.000000, 547.000000)">
                <g id="Social" transform="translate(490.000000, 1090.000000)">
                    <g id="Linkedin">
                        <path d="M8.52776617,8.24358974 L8.52776617,15 L7.33361931,15 L7.33361931,8.24358974 L8.52776617,8.24358974 Z M8.52776617,5.23076923 C8.68352523,5.38461615 8.7614036,5.57692192 8.7614036,5.80769231 C8.7614036,6.03846269 8.68352523,6.22863173 8.52776617,6.37820513 C8.3720071,6.52777853 8.16865804,6.6025641 7.91771288,6.6025641 C7.675421,6.6025641 7.47639852,6.52777853 7.32063945,6.37820513 C7.16488039,6.22863173 7.08700202,6.03846269 7.08700202,5.80769231 C7.08700202,5.57692192 7.16488039,5.38461615 7.32063945,5.23076923 C7.47639852,5.07692231 7.675421,5 7.91771288,5 C8.16865804,5 8.3720071,5.07692231 8.52776617,5.23076923 Z M15.6731775,8.64102564 C16.0236354,9.00854885 16.1988618,9.51281731 16.1988618,10.1538462 L16.1988618,15 L15.0047149,15 L15.0047149,10.3205128 C15.0047149,9.84187795 14.9138568,9.50427449 14.7321379,9.30769231 C14.550419,9.11111013 14.2821713,9.01282051 13.9273868,9.01282051 C13.5639489,9.01282051 13.2437823,9.11538359 12.9668773,9.32051282 C12.6899723,9.52564205 12.4303778,9.8205109 12.1880859,10.2051282 L12.1880859,15 L10.993939,15 L10.993939,8.24358974 L12.0193478,8.24358974 L12.1231866,9.24358974 C12.3654785,8.88461359 12.6661755,8.60256513 13.0252867,8.3974359 C13.3843979,8.19230667 13.7802795,8.08974359 14.2129436,8.08974359 C14.8359799,8.08974359 15.3227197,8.27350244 15.6731775,8.64102564 Z" id="in" fill="#414042"></path>
                        <ellipse id="Oval-Copy-4" stroke="#414042" cx="11.1367175" cy="11" rx="11.1367175" ry="11"></ellipse>
                    </g>
                </g>
            </g>
        </g>
    </g>
</svg>