<?xml version="1.0" encoding="UTF-8" standalone="no"?>
<svg width="25px" height="24px" viewBox="0 0 25 24" version="1.1" xmlns="http://www.w3.org/2000/svg" xmlns:xlink="http://www.w3.org/1999/xlink">
    <!-- Generator: Sketch 45.1 (43504) - http://www.bohemiancoding.com/sketch -->
    <title>Twitter</title>
    <desc>Created with Sketch.</desc>
    <defs></defs>
    <g id="About:-Who-We-Are" stroke="none" stroke-width="1" fill="none" fill-rule="evenodd">
        <g id="About:-Who-we-are-(1)" transform="translate(-692.000000, -1636.000000)">
            <g id="About-Us" transform="translate(173.000000, 547.000000)">
                <g id="Social" transform="translate(490.000000, 1090.000000)">
                    <g id="Twitter" transform="translate(30.372866, 0.000000)">
                        <path d="M14.174004,14.5156951 C13.675457,14.8385666 13.1098064,15 12.4770352,15 C11.8346766,15 11.3337402,14.827356 10.9742111,14.4820628 C10.614682,14.1367696 10.4349202,13.6367746 10.4349202,12.9820628 L10.4349202,8.70403587 L9.11185974,8.70403587 L9.11185974,7.74887892 L10.4349202,7.74887892 L10.4349202,6.14798206 L11.7579806,6 L11.7579806,7.74887892 L13.5556171,7.74887892 L13.4118062,8.70403587 L11.7579806,8.70403587 L11.7579806,12.9282511 C11.7579806,13.295966 11.8274885,13.5627794 11.9665065,13.7286996 C12.1055244,13.8946197 12.3380164,13.9775785 12.6639894,13.9775785 C12.9612001,13.9775785 13.2967556,13.883409 13.6706658,13.6950673 L14.174004,14.5156951 Z" id="t" fill="#414042"></path>
                        <ellipse id="Oval-Copy-3" stroke="#414042" cx="11.1367175" cy="11" rx="11.1367175" ry="11"></ellipse>
                    </g>
                </g>
            </g>
        </g>
    </g>
</svg>